<?xml version="1.0" encoding="utf-8"?>
<!-- Generator: Adobe Illustrator 16.0.3, SVG Export Plug-In . SVG Version: 6.00 Build 0)  -->
<!DOCTYPE svg PUBLIC "-//W3C//DTD SVG 1.1//EN" "http://www.w3.org/Graphics/SVG/1.1/DTD/svg11.dtd">
<svg version="1.1" id="Layer_1" xmlns="http://www.w3.org/2000/svg" xmlns:xlink="http://www.w3.org/1999/xlink" x="0px" y="0px"
	 width="445.435px" height="512px" viewBox="32.563 0 445.435 512" enable-background="new 32.563 0 445.435 512"
	 xml:space="preserve">
<path id="note-7-icon" fill="#FFFFFF" d="M378.017,416.967H132.544v-37.188h245.472L378.017,416.967L378.017,416.967z
	 M377.976,340.834H132.545v-37.188h245.431V340.834z M377.976,264.803H132.545v-37.188h245.431V264.803z M397.906,80.96
	c0,12.439-10.085,22.527-22.524,22.527S352.858,93.4,352.858,80.96V24.275c0-12.438,10.084-22.524,22.523-22.524
	s22.524,10.086,22.524,22.524V80.96z M158.866,24.173c0-12.44-10.085-22.524-22.524-22.524c-12.441,0-22.524,10.084-22.524,22.524
	v56.685c0,12.439,10.083,22.525,22.524,22.525c12.439,0,22.524-10.085,22.524-22.525V24.173z M425.131,57.062v23.075
	c0,27.434-22.318,49.752-49.75,49.752c-27.433,0-49.75-22.318-49.75-49.752V57.062h-139.54v22.973
	c0,27.433-22.318,49.75-49.75,49.75c-27.432,0-49.75-22.317-49.75-49.75V57.062H32.563V512h445.435V57.062H425.131z
	 M428.413,462.416H82.148V176.72h346.266V462.416L428.413,462.416z"/>
</svg>
