<?xml version="1.0" encoding="utf-8"?>
<!-- Generator: Adobe Illustrator 16.0.3, SVG Export Plug-In . SVG Version: 6.00 Build 0)  -->
<!DOCTYPE svg PUBLIC "-//W3C//DTD SVG 1.1 Tiny//EN" "http://www.w3.org/Graphics/SVG/1.1/DTD/svg11-tiny.dtd">
<svg version="1.1" baseProfile="tiny" id="Layer_1" xmlns="http://www.w3.org/2000/svg" xmlns:xlink="http://www.w3.org/1999/xlink"
	 x="0px" y="0px" width="611.679px" height="596.055px" viewBox="0 0 611.679 596.055" xml:space="preserve">
<path fill="#2AA275" d="M0.201,524.918l0.618-0.617c-7.419-46.99,36.479-91.505,95.833-99.543
	c26.586-4.328,50.699-0.619,73.575,11.129l15.458-403.118L611.679,0c-12.984,299.865-19.785,455.672-20.404,467.419
	c-1.854,42.042-42.661,79.14-95.215,87.177c-59.354,8.038-113.763-21.639-119.328-68.629c-5.564-46.988,35.242-90.887,95.216-100.16
	c27.822-4.328,53.79,0,77.285,12.983l15.456-287.5l-333.252,34.005l-3.71,80.995c-2.473,53.79-4.946,111.29-7.419,171.263
	c-2.473,59.974-4.328,96.451-4.946,108.818v3.709c-4.946,42.043-43.897,76.666-96.451,84.704
	C61.411,602.822,7.001,571.908,0.201,524.918z"/>
</svg>
